<svg width="1474" height="468" xmlns="http://www.w3.org/2000/svg" xmlns:xlink="http://www.w3.org/1999/xlink" xml:space="preserve" overflow="hidden"><defs><clipPath id="clip0"><rect x="1201" y="780" width="1474" height="468"/></clipPath></defs><g clip-path="url(#clip0)" transform="translate(-1201 -780)"><path d="M1208 985C1208 875.647 1296.65 787 1406 787 1515.35 787 1604 875.647 1604 985 1604 1094.35 1515.35 1183 1406 1183 1296.65 1183 1208 1094.35 1208 985Z" stroke="#0070C0" stroke-width="13.75" stroke-miterlimit="8" fill="#7F7F7F" fill-rule="evenodd"/><text fill="#7F7F7F" font-family="Calibri,Calibri_MSFontService,sans-serif" font-weight="700" font-size="220" transform="matrix(1 0 0 1 1637.31 1057)">Silver</text><text fill="#0070C0" font-family="Calibri,Calibri_MSFontService,sans-serif" font-weight="400" font-size="220" transform="matrix(1 0 0 1 2140.58 1057)">tape</text><path d="M1307 985C1307 930.324 1351.32 886 1406 886 1460.68 886 1505 930.324 1505 985 1505 1039.68 1460.68 1084 1406 1084 1351.32 1084 1307 1039.68 1307 985Z" fill="#FFFFFF" fill-rule="evenodd"/><path d="M1292.5 984C1292.5 920.211 1344.21 868.5 1408 868.5 1471.79 868.5 1523.5 920.211 1523.5 984 1523.5 1047.79 1471.79 1099.5 1408 1099.5 1344.21 1099.5 1292.5 1047.79 1292.5 984Z" stroke="#FFFFFF" stroke-width="4.58333" stroke-miterlimit="8" fill="none" fill-rule="evenodd"/><path d="M1277.5 984.5C1277.5 911.598 1336.6 852.5 1409.5 852.5 1482.4 852.5 1541.5 911.598 1541.5 984.5 1541.5 1057.4 1482.4 1116.5 1409.5 1116.5 1336.6 1116.5 1277.5 1057.4 1277.5 984.5Z" stroke="#FFFFFF" stroke-width="4.58333" stroke-miterlimit="8" fill="none" fill-rule="evenodd"/><path d="M1241.5 984.5C1241.5 893.373 1315.37 819.5 1406.5 819.5 1497.63 819.5 1571.5 893.373 1571.5 984.5 1571.5 1075.63 1497.63 1149.5 1406.5 1149.5 1315.37 1149.5 1241.5 1075.63 1241.5 984.5Z" stroke="#FFFFFF" stroke-width="4.58333" stroke-miterlimit="8" fill="none" fill-rule="evenodd"/></g></svg>