<svg width="2074" height="647" xmlns="http://www.w3.org/2000/svg" xmlns:xlink="http://www.w3.org/1999/xlink" xml:space="preserve" overflow="hidden"><defs><clipPath id="clip0"><rect x="990" y="715" width="2074" height="647"/></clipPath></defs><g clip-path="url(#clip0)" transform="translate(-990 -715)"><text fill="#7F7F7F" font-family="Calibri,Calibri_MSFontService,sans-serif" font-weight="700" font-size="303" transform="matrix(1 0 0 1 1637.31 1100)">Silver</text><text fill="#0070C0" font-family="Calibri,Calibri_MSFontService,sans-serif" font-weight="400" font-size="303" transform="matrix(1 0 0 1 2330.03 1100)">tape</text><path d="M1071.21 954.125C1234.3 818.708 1397.4 1089.54 1560.5 954.125L1509.79 1197.88C1346.7 1333.29 1183.6 1062.46 1020.5 1197.88Z" stroke="#0070C0" stroke-width="38.9583" stroke-miterlimit="8" fill="#7F7F7F" fill-rule="evenodd"/><path d="M1234.53 799.493C1250.95 742.491 1340.38 718.204 1434.28 745.247 1528.18 772.289 1591 840.42 1574.58 897.422 1558.17 954.423 1468.74 978.71 1374.84 951.668 1280.93 924.626 1218.12 856.495 1234.53 799.493Z" stroke="#0070C0" stroke-width="36.6667" stroke-miterlimit="8" fill="#7F7F7F" fill-rule="evenodd"/><path d="M1322.35 824.784C1331.23 793.953 1375.23 779.559 1420.63 792.633 1466.03 805.707 1495.64 841.299 1486.76 872.13 1477.88 902.961 1433.88 917.355 1388.48 904.281 1343.08 891.207 1313.48 855.615 1322.35 824.784Z" fill="#FFFFFF" fill-rule="evenodd"/></g></svg>